<?xml version="1.0" encoding="UTF-8" standalone="no"?>
<!-- Created with Inkscape (http://www.inkscape.org/) -->
<svg
   xmlns:dc="http://purl.org/dc/elements/1.1/"
   xmlns:cc="http://web.resource.org/cc/"
   xmlns:rdf="http://www.w3.org/1999/02/22-rdf-syntax-ns#"
   xmlns:svg="http://www.w3.org/2000/svg"
   xmlns="http://www.w3.org/2000/svg"
   xmlns:sodipodi="http://sodipodi.sourceforge.net/DTD/sodipodi-0.dtd"
   xmlns:inkscape="http://www.inkscape.org/namespaces/inkscape"
   width="661.42914"
   height="97.795273"
   id="svg2008"
   sodipodi:version="0.32"
   inkscape:version="0.44"
   version="1.0"
   sodipodi:docbase="C:\Dokumente und Einstellungen\Andreas\Eigene Dateien\Eigene Bilder\sonstiges\Logos\Vektor\communications"
   sodipodi:docname="T-Mobile.svg">
  <defs
     id="defs2010" />
  <sodipodi:namedview
     id="base"
     pagecolor="#ffffff"
     bordercolor="#666666"
     borderopacity="1.0"
     inkscape:pageopacity="0.0"
     inkscape:pageshadow="2"
     inkscape:zoom="0.35"
     inkscape:cx="350"
     inkscape:cy="520"
     inkscape:document-units="px"
     inkscape:current-layer="layer1"
     width="186.67mm"
     height="27.6mm"
     units="mm"
     inkscape:window-width="904"
     inkscape:window-height="574"
     inkscape:window-x="115"
     inkscape:window-y="115" />
  <metadata
     id="metadata2013">
    <rdf:RDF>
      <cc:Work
         rdf:about="">
        <dc:format>image/svg+xml</dc:format>
        <dc:type
           rdf:resource="http://purl.org/dc/dcmitype/StillImage" />
      </cc:Work>
    </rdf:RDF>
  </metadata>
  <g
     inkscape:label="Ebene 1"
     inkscape:groupmode="layer"
     id="layer1"
     transform="translate(-65.68811,-595.9001)">
    <g
       id="g2030"
       transform="matrix(1.590203,0,0,1.590203,-35.22385,-401.6774)">
      <path
         style="fill:#666;fill-opacity:1;fill-rule:nonzero;stroke:none"
         d="M 65.688076,654.46831 L 77.094502,654.46831 L 77.094502,666.10752 L 65.688076,666.10752 L 65.688076,654.46831 z "
         class="ps01"
         id="path18" />
      <path
         style="fill:#e31082;fill-opacity:1;fill-rule:nonzero;stroke:none"
         d="M 91.189585,632.81938 L 92.411702,632.81938 C 100.30309,632.81938 103.98108,637.35867 105.51745,649.46345 L 107.96169,649.34706 L 107.63579,630.14236 L 67.480514,630.14236 L 67.084781,649.34706 L 69.435901,649.46345 C 69.843274,644.92416 70.332121,642.47993 71.391289,640.03569 C 73.265202,635.4964 77.175976,632.81938 81.98297,632.81938 L 83.693934,632.81938 L 83.693934,674.60415 C 83.693934,679.02705 83.44951,680.42375 82.471817,681.47128 C 81.657072,682.28603 80.027583,682.6352 78.15367,682.6352 L 76.279757,682.6352 L 76.279757,685.42861 L 98.603762,685.42861 L 98.603762,682.6352 L 96.71821,682.6352 C 94.855936,682.6352 93.214808,682.28603 92.411702,681.47128 C 91.434008,680.42375 91.189585,679.02705 91.189585,674.60415 L 91.189585,632.81938"
         class="ps01"
         id="path20" />
      <path
         style="fill:#666;fill-opacity:1;fill-rule:nonzero;stroke:none"
         d="M 97.940327,654.46831 L 109.34675,654.46831 L 109.34675,666.10752 L 97.940327,666.10752 L 97.940327,654.46831 z "
         class="ps01"
         id="path22" />
      <path
         style="fill:#666;fill-opacity:1;fill-rule:nonzero;stroke:none"
         d="M 132.14796,654.46831 L 143.56603,654.46831 L 143.56603,666.10752 L 132.14796,666.10752 L 132.14796,654.46831 z "
         class="ps01"
         id="path24" />
      <path
         style="fill:#666;fill-opacity:1;fill-rule:nonzero;stroke:none"
         d="M 167.42641,654.46831 L 178.83284,654.46831 L 178.83284,666.10752 L 167.42641,666.10752 L 167.42641,654.46831 z "
         class="ps01"
         id="path26" />
      <path
         style="fill:#666;fill-opacity:1;fill-rule:nonzero;stroke:none"
         d="M 211.25968,685.42861 L 225.66902,635.14722 L 225.66902,674.60415 C 225.66902,678.91065 225.42459,680.42375 224.4469,681.47128 C 223.71363,682.28603 222.01431,682.6352 220.12875,682.6352 L 219.39548,682.6352 L 219.39548,685.42861 L 239.7641,685.42861 L 239.7641,682.6352 L 238.70493,682.6352 C 236.83102,682.6352 235.12006,682.28603 234.38679,681.47128 C 233.40909,680.42375 233.16467,678.91065 233.16467,674.60415 L 233.16467,640.96683 C 233.16467,636.66032 233.40909,635.03083 234.38679,633.9833 C 235.20153,633.28495 236.83102,632.81938 238.70493,632.81938 L 239.7641,632.81938 L 239.7641,630.14236 L 223.95805,630.14236 L 212.06278,670.76321 L 200.42357,630.14236 L 184.699,630.14236 L 184.699,632.81938 L 186.16554,632.81938 C 190.48369,632.81938 191.29843,633.75052 191.29843,639.33734 L 191.29843,671.34517 C 191.29843,676.46642 191.05401,678.56148 190.32074,680.07458 C 189.50599,681.58767 187.78339,682.6352 186.00259,682.6352 L 184.699,682.6352 L 184.699,685.42861 L 201.48274,685.42861 L 201.48274,682.6352 L 200.42357,682.6352 C 198.30523,682.6352 196.59427,681.82046 195.60494,680.19097 C 194.63888,678.56148 194.39446,677.04838 194.39446,671.34517 L 194.39446,635.14722 L 208.72233,685.42861 L 211.25968,685.42861"
         class="ps01"
         id="path28" />
      <path
         style="fill:#666;fill-opacity:1;fill-rule:evenodd;stroke:none"
         d="M 257.28111,646.08808 C 247.17828,646.08808 240.57885,654.00274 240.57885,666.4567 C 240.57885,678.44509 247.17828,686.59253 257.02505,686.59253 C 266.96493,686.59253 273.56437,678.44509 273.56437,666.34031 C 273.56437,654.35192 266.96493,646.08808 257.28111,646.08808 M 256.95521,648.7651 C 259.87666,648.7651 262.40236,650.62737 263.78743,653.76996 C 265.09102,656.67976 265.66134,660.63709 265.66134,666.34031 C 265.66134,678.09591 262.80974,683.91551 257.02505,683.91551 C 251.252,683.91551 248.47023,678.09591 248.47023,666.22392 C 248.47023,660.63709 249.05219,656.67976 250.35578,653.76996 C 251.64773,650.74377 254.26656,648.7651 256.95521,648.7651"
         class="ps03"
         id="path30" />
      <path
         style="fill:#666;fill-opacity:1;fill-rule:evenodd;stroke:none"
         d="M 287.10077,629.5604 L 275.53139,630.14236 L 275.53139,632.70299 L 276.09008,632.70299 C 279.512,632.70299 280.25691,633.86691 280.25691,639.33734 L 280.25691,677.16477 C 280.25691,682.05324 280.09396,683.33355 279.44217,685.42861 L 282.13083,685.42861 C 284.15605,682.05324 284.65653,681.47128 285.47128,681.47128 C 285.86701,681.47128 286.26274,681.58767 286.84471,682.16963 C 290.84859,685.42861 292.55956,686.12696 296.22591,686.12696 C 305.01351,686.12696 311.36852,677.63034 311.36852,665.52556 C 311.36852,654.11914 305.49072,646.43726 296.70312,646.43726 C 292.14055,646.43726 288.81173,648.64871 287.10077,652.60604 L 287.10077,629.5604 M 295.55083,649.34706 C 300.77684,649.34706 303.4655,654.93388 303.4655,665.87474 C 303.4655,677.39756 300.69536,683.33355 295.39952,683.33355 C 289.53336,683.33355 286.44897,677.28116 286.44897,666.22392 C 286.44897,660.63709 287.18224,656.79616 288.89321,653.88635 C 290.42958,651.09294 293.0484,649.34706 295.55083,649.34706"
         class="ps03"
         id="path32" />
      <path
         style="fill:#666;fill-opacity:1;fill-rule:evenodd;stroke:none"
         d="M 326.4413,646.67004 L 314.55766,647.3684 L 314.55766,649.92902 L 315.45388,649.92902 C 318.86417,649.92902 319.59744,651.09294 319.59744,656.44698 L 319.59744,676.11724 C 319.59744,681.47128 318.86417,682.75159 315.45388,682.75159 L 314.16193,682.75159 L 314.16193,685.42861 L 331.90009,685.42861 L 331.90009,682.75159 L 330.61977,682.75159 C 327.18621,682.75159 326.4413,681.58767 326.4413,676.11724 L 326.4413,646.67004 M 322.54216,629.6768 C 320.01645,629.6768 317.97959,631.65546 317.97959,634.33248 C 317.97959,636.77671 320.01645,638.87177 322.46069,638.87177 C 324.9864,638.87177 326.94178,636.89311 326.94178,634.33248 C 326.94178,631.77185 324.9864,629.6768 322.54216,629.6768"
         class="ps03"
         id="path34" />
      <path
         style="fill:#666;fill-opacity:1;fill-rule:nonzero;stroke:none"
         d="M 347.05434,629.5604 L 335.1707,630.14236 L 335.1707,632.70299 L 336.05528,632.70299 C 339.47721,632.70299 340.21048,633.86691 340.21048,639.33734 L 340.21048,676.11724 C 340.21048,681.58767 339.47721,682.75159 336.05528,682.75159 L 334.76333,682.75159 L 334.76333,685.42861 L 352.51313,685.42861 L 352.51313,682.75159 L 351.20954,682.75159 C 347.77597,682.75159 347.05434,681.58767 347.05434,676.11724 L 347.05434,629.5604"
         class="ps01"
         id="path36" />
      <path
         style="fill:#666;fill-opacity:1;fill-rule:evenodd;stroke:none"
         d="M 384.92833,666.10752 C 384.53259,653.76996 378.66643,646.08808 369.79735,646.08808 C 361.2309,646.08808 355.05048,654.46831 355.05048,666.10752 C 355.05048,678.56148 361.14942,686.59253 370.60046,686.59253 C 376.71105,686.59253 380.94772,683.33355 384.45112,676.11724 L 382.00689,674.83693 C 379.15528,680.88932 376.30367,683.33355 371.90405,683.33355 C 365.46757,683.33355 362.70908,678.2123 362.6276,666.10752 L 384.92833,666.10752 M 362.70908,663.19772 C 362.77891,654.46831 365.61888,648.99788 370.19309,648.99788 C 374.75566,648.99788 377.44432,654.35192 377.36284,663.19772 L 362.70908,663.19772"
         class="ps03"
         id="path38" />
      <path
         style="fill:#666;fill-opacity:1;fill-rule:nonzero;stroke:none"
         d="M 396.27656,654.46831 L 407.68298,654.46831 L 407.68298,666.10752 L 396.27656,666.10752 L 396.27656,654.46831 z "
         class="ps01"
         id="path40" />
      <path
         style="fill:#666;fill-opacity:1;fill-rule:nonzero;stroke:none"
         d="M 430.49583,654.46831 L 441.90226,654.46831 L 441.90226,666.10752 L 430.49583,666.10752 L 430.49583,654.46831 z "
         class="ps01"
         id="path42" />
      <path
         style="fill:#666;fill-opacity:1;fill-rule:nonzero;stroke:none"
         d="M 465.76264,654.46831 L 477.16907,654.46831 L 477.16907,666.10752 L 465.76264,666.10752 L 465.76264,654.46831 z "
         class="ps01"
         id="path44" />
    </g>
  </g>
</svg>
